<svg xmlns="http://www.w3.org/2000/svg" viewBox="0 0 400 250">
<rect width="400" height="250" fill="rgba(30,30,30,1)"/>
<clipPath id="clip-0"><rect x="0" y="0" width="400" height="188"/></clipPath>
<g clip-path="url(#clip-0)">
<rect x="0" y="0" width="400" height="188" rx="6" fill="rgba(45,45,55,1)"/>
<line x1="0" y1="94" x2="400" y2="94" stroke="rgba(60,60,70,1)" stroke-width="1"/>
<polyline points="0,94 1,90.4576 2,86.9231 3,83.4042 4,79.9089 5,76.4449 6,73.0199 7,69.6414 8,66.317 9,63.0541 10,59.8599 11,56.7415 12,53.7058 13,50.7596 14,47.9094 15,45.1615 16,42.5221 17,39.9969 18,37.5916 19,35.3116 20,33.1619 21,31.1473 22,29.2722 23,27.5408 24,25.957 25,24.5243 26,23.2458 27,22.1244 28,21.1625 29,20.3624 30,19.7258 31,19.2541 32,18.9484 33,18.8093 34,18.8371 35,19.0318 36,19.393 37,19.9198 38,20.6111 39,21.4653 40,22.4805 41,23.6546 42,24.9848 43,26.4683 44,28.1017 45,29.8815 46,31.8035 47,33.8637 48,36.0574 49,38.3797 50,40.8256 51,43.3895 52,46.0657 53,48.8484 54,51.7313 55,54.7081 56,57.7721 57,60.9166 58,64.1345 59,67.4187 60,70.7619 61,74.1568 62,77.5956 63,81.0709 64,84.5749 65,88.0999 66,91.6379 67,95.1812 68,98.7219 69,102.252 70,105.764 71,109.25 72,112.701 73,116.112 74,119.473 75,122.778 76,126.019 77,129.188 78,132.28 79,135.286 80,138.201 81,141.018 82,143.731 83,146.333 84,148.818 85,151.183 86,153.42 87,155.525 88,157.493 89,159.321 90,161.004 91,162.538 92,163.919 93,165.146 94,166.214 95,167.122 96,167.868 97,168.45 98,168.866 99,169.117 100,169.2 101,169.117 102,168.866 103,168.45 104,167.868 105,167.122 106,166.214 107,165.146 108,163.919 109,162.538 110,161.004 111,159.321 112,157.493 113,155.525 114,153.42 115,151.183 116,148.818 117,146.333 118,143.731 119,141.018 120,138.201 121,135.286 122,132.28 123,129.188 124,126.019 125,122.778 126,119.473 127,116.112 128,112.701 129,109.25 130,105.764 131,102.252 132,98.7218 133,95.1812 134,91.6379 135,88.0998 136,84.5749 137,81.0709 138,77.5956 139,74.1567 140,70.7619 141,67.4187 142,64.1345 143,60.9165 144,57.7721 145,54.7081 146,51.7313 147,48.8484 148,46.0657 149,43.3895 150,40.8256 151,38.3797 152,36.0574 153,33.8637 154,31.8035 155,29.8814 156,28.1017 157,26.4683 158,24.9849 159,23.6546 160,22.4805 161,21.4653 162,20.6111 163,19.9198 164,19.393 165,19.0318 166,18.8371 167,18.8093 168,18.9484 169,19.2541 170,19.7258 171,20.3624 172,21.1626 173,22.1244 174,23.2458 175,24.5243 176,25.957 177,27.5408 178,29.2722 179,31.1473 180,33.1619 181,35.3116 182,37.5917 183,39.9969 184,42.5221 185,45.1615 186,47.9094 187,50.7596 188,53.7058 189,56.7416 190,59.8599 191,63.0541 192,66.3171 193,69.6414 194,73.0199 195,76.4449 196,79.909 197,83.4042 198,86.923 199,90.4576 200,94 201,97.5425 202,101.077 203,104.596 204,108.091 205,111.555 206,114.98 207,118.359 208,121.683 209,124.946 210,128.14 211,131.259 212,134.294 213,137.24 214,140.091 215,142.839 216,145.478 217,148.003 218,150.408 219,152.688 220,154.838 221,156.853 222,158.728 223,160.459 224,162.043 225,163.476 226,164.754 227,165.876 228,166.837 229,167.638 230,168.274 231,168.746 232,169.052 233,169.191 234,169.163 235,168.968 236,168.607 237,168.08 238,167.389 239,166.535 240,165.519 241,164.345 242,163.015 243,161.532 244,159.898 245,158.119 246,156.196 247,154.136 248,151.943 249,149.62 250,147.174 251,144.61 252,141.934 253,139.152 254,136.269 255,133.292 256,130.228 257,127.083 258,123.866 259,120.581 260,117.238 261,113.843 262,110.404 263,106.929 264,103.425 265,99.9001 266,96.3621 267,92.8188 268,89.2781 269,85.748 270,82.236 271,78.7504 272,75.2985 273,71.8882 274,68.5269 275,65.2222 276,61.9814 277,58.8116 278,55.72 279,52.7134 280,49.7986 281,46.9817 282,44.2693 283,41.6674 284,39.1815 285,36.8174 286,34.5803 287,32.4751 288,30.5065 289,28.6789 290,26.9963 291,25.4625 292,24.0808 293,22.8544 294,21.7859 295,20.8778 296,20.132 297,19.5502 298,19.1337 299,18.8835 300,18.8 301,18.8835 302,19.1337 303,19.5502 304,20.132 305,20.8778 306,21.7859 307,22.8544 308,24.0808 309,25.4625 310,26.9963 311,28.6789 312,30.5065 313,32.4752 314,34.5804 315,36.8175 316,39.1815 317,41.6674 318,44.2694 319,46.9818 320,49.7986 321,52.7135 322,55.7201 323,58.8116 324,61.9814 325,65.2222 326,68.5269 327,71.8883 328,75.2986 329,78.7504 330,82.2361 331,85.748 332,89.2782 333,92.8188 334,96.3621 335,99.9002 336,103.425 337,106.929 338,110.404 339,113.843 340,117.238 341,120.581 342,123.866 343,127.083 344,130.228 345,133.292 346,136.269 347,139.152 348,141.934 349,144.611 350,147.174 351,149.62 352,151.943 353,154.136 354,156.197 355,158.119 356,159.898 357,161.532 358,163.015 359,164.345 360,165.519 361,166.535 362,167.389 363,168.08 364,168.607 365,168.968 366,169.163 367,169.191 368,169.052 369,168.746 370,168.274 371,167.638 372,166.837 373,165.876 374,164.754 375,163.476 376,162.043 377,160.459 378,158.728 379,156.853 380,154.838 381,152.688 382,150.408 383,148.003 384,145.478 385,142.838 386,140.091 387,137.24 388,134.294 389,131.258 390,128.14 391,124.946 392,121.683 393,118.359 394,114.98 395,111.555 396,108.091 397,104.596 398,101.077 399,97.5423" stroke="rgba(0,140,200,1)" fill="none" stroke-width="2"/>
</g>
<clipPath id="clip-1"><rect x="0" y="188" width="400" height="30"/></clipPath>
<g clip-path="url(#clip-1)">
<rect x="0" y="200" width="400" height="6" fill="rgba(60,60,70,1)"/>
<rect x="129.333" y="188" width="12" height="30" fill="rgba(0,140,200,1)"/>
</g>
</svg>
