<svg xmlns="http://www.w3.org/2000/svg" viewBox="0 0 400 250">
<rect width="400" height="250" fill="rgba(30,30,30,1)"/>
<clipPath id="clip-0"><rect x="0" y="0" width="400" height="220"/></clipPath>
<g clip-path="url(#clip-0)">
<rect x="0" y="0" width="400" height="220" rx="6" fill="rgba(45,45,55,1)"/>
<line x1="0" y1="110" x2="400" y2="110" stroke="rgba(60,60,70,1)" stroke-width="1"/>
<polyline points="0,110 1,105.855 2,101.718 3,97.6007 4,93.5104 5,89.4568 6,85.4488 7,81.4953 8,77.605 9,73.7867 10,70.0488 11,66.3996 12,62.8472 13,59.3995 14,56.0642 15,52.8486 16,49.7599 17,46.8049 18,43.9902 19,41.3221 20,38.8065 21,36.449 22,34.2547 23,32.2286 24,30.3752 25,28.6986 26,27.2025 27,25.8902 28,24.7647 29,23.8284 30,23.0834 31,22.5314 32,22.1736 33,22.0109 34,22.0434 35,22.2713 36,22.6939 37,23.3104 38,24.1193 39,25.1189 40,26.307 41,27.6809 42,29.2376 43,30.9736 44,32.885 45,34.9677 46,37.2169 47,39.6277 48,42.1948 49,44.9125 50,47.7746 51,50.7749 52,53.9067 53,57.163 54,60.5367 55,64.0201 56,67.6057 57,71.2854 58,75.051 59,78.8942 60,82.8065 61,86.7792 62,90.8034 63,94.8702 64,98.9707 65,103.096 66,107.236 67,111.382 68,115.526 69,119.657 70,123.766 71,127.845 72,131.885 73,135.876 74,139.809 75,143.676 76,147.469 77,151.178 78,154.796 79,158.314 80,161.725 81,165.021 82,168.195 83,171.24 84,174.149 85,176.916 86,179.534 87,181.997 88,184.301 89,186.44 90,188.409 91,190.203 92,191.82 93,193.256 94,194.506 95,195.569 96,196.441 97,197.122 98,197.609 99,197.902 100,198 101,197.902 102,197.609 103,197.122 104,196.441 105,195.569 106,194.506 107,193.256 108,191.82 109,190.203 110,188.409 111,186.44 112,184.301 113,181.997 114,179.534 115,176.916 116,174.149 117,171.24 118,168.195 119,165.021 120,161.725 121,158.314 122,154.796 123,151.178 124,147.469 125,143.676 126,139.809 127,135.876 128,131.885 129,127.845 130,123.766 131,119.657 132,115.526 133,111.382 134,107.236 135,103.096 136,98.9707 137,94.8702 138,90.8034 139,86.7791 140,82.8065 141,78.8942 142,75.051 143,71.2853 144,67.6057 145,64.0201 146,60.5366 147,57.163 148,53.9067 149,50.7749 150,47.7746 151,44.9124 152,42.1948 153,39.6277 154,37.2169 155,34.9676 156,32.885 157,30.9736 158,29.2376 159,27.6809 160,26.307 161,25.1189 162,24.1193 163,23.3104 164,22.6939 165,22.2713 166,22.0434 167,22.0109 168,22.1736 169,22.5314 170,23.0834 171,23.8284 172,24.7647 173,25.8902 174,27.2025 175,28.6986 176,30.3752 177,32.2286 178,34.2547 179,36.4489 180,38.8065 181,41.3221 182,43.9903 183,46.8049 184,49.7599 185,52.8486 186,56.0642 187,59.3996 188,62.8472 189,66.3997 190,70.0488 191,73.7867 192,77.6051 193,81.4953 194,85.4489 195,89.4568 196,93.5105 197,97.6007 198,101.718 199,105.855 200,110 201,114.145 202,118.282 203,122.399 204,126.49 205,130.543 206,134.551 207,138.505 208,142.395 209,146.213 210,149.951 211,153.6 212,157.153 213,160.6 214,163.936 215,167.151 216,170.24 217,173.195 218,176.01 219,178.678 220,181.194 221,183.551 222,185.745 223,187.771 224,189.625 225,191.301 226,192.798 227,194.11 228,195.235 229,196.172 230,196.917 231,197.469 232,197.826 233,197.989 234,197.957 235,197.729 236,197.306 237,196.69 238,195.881 239,194.881 240,193.693 241,192.319 242,190.762 243,189.026 244,187.115 245,185.032 246,182.783 247,180.372 248,177.805 249,175.088 250,172.225 251,169.225 252,166.093 253,162.837 254,159.463 255,155.98 256,152.394 257,148.715 258,144.949 259,141.106 260,137.193 261,133.221 262,129.197 263,125.13 264,121.029 265,116.904 266,112.764 267,108.618 268,104.474 269,100.343 270,96.2337 271,92.1547 272,88.1152 273,84.1245 274,80.191 275,76.3238 276,72.5315 277,68.8221 278,65.2043 279,61.6859 280,58.2749 281,54.9786 282,51.8045 283,48.7597 284,45.8507 285,43.0842 286,40.4663 287,38.0028 288,35.6991 289,33.5604 290,31.5914 291,29.7965 292,28.1796 293,26.7445 294,25.4942 295,24.4314 296,23.5587 297,22.8779 298,22.3905 299,22.0977 300,22 301,22.0977 302,22.3906 303,22.8779 304,23.5587 305,24.4314 306,25.4942 307,26.7445 308,28.1797 309,29.7966 310,31.5915 311,33.5604 312,35.6992 313,38.0029 314,40.4664 315,43.0843 316,45.8507 317,48.7597 318,51.8046 319,54.9787 320,58.275 321,61.686 322,65.2044 323,68.8221 324,72.5315 325,76.3239 326,80.191 327,84.1246 328,88.1153 329,92.1548 330,96.2337 331,100.343 332,104.474 333,108.618 334,112.764 335,116.904 336,121.029 337,125.13 338,129.197 339,133.221 340,137.194 341,141.106 342,144.949 343,148.715 344,152.394 345,155.98 346,159.463 347,162.837 348,166.093 349,169.225 350,172.225 351,175.088 352,177.805 353,180.372 354,182.783 355,185.032 356,187.115 357,189.026 358,190.762 359,192.319 360,193.693 361,194.881 362,195.881 363,196.69 364,197.306 365,197.729 366,197.957 367,197.989 368,197.826 369,197.469 370,196.917 371,196.172 372,195.235 373,194.11 374,192.797 375,191.301 376,189.625 377,187.771 378,185.745 379,183.551 380,181.194 381,178.678 382,176.01 383,173.195 384,170.24 385,167.151 386,163.936 387,160.6 388,157.153 389,153.6 390,149.951 391,146.213 392,142.395 393,138.505 394,134.551 395,130.543 396,126.49 397,122.399 398,118.282 399,114.145" stroke="rgba(0,140,200,1)" fill="none" stroke-width="2"/>
</g>
<clipPath id="clip-1"><rect x="0" y="220" width="400" height="30"/></clipPath>
<g clip-path="url(#clip-1)">
<rect x="0" y="232" width="400" height="6" fill="rgba(60,60,70,1)"/>
<rect x="129.333" y="220" width="12" height="30" fill="rgba(0,140,200,1)"/>
</g>
</svg>
