<svg xmlns="http://www.w3.org/2000/svg" viewBox="0 0 300 165">
<rect width="300" height="165" fill="rgba(30,30,30,1)"/>
<clipPath id="clip-0"><rect x="0" y="0" width="300" height="24"/></clipPath>
<g clip-path="url(#clip-0)">
<rect x="0" y="0" width="300" height="24" fill="rgba(45,45,55,1)"/>
<text x="4" y="4" font-family="monospace" font-size="14" fill="rgba(180,180,190,1)" dominant-baseline="hanging">voltage</text>
</g>
<clipPath id="clip-1"><rect x="0" y="24" width="300" height="30"/></clipPath>
<g clip-path="url(#clip-1)">
<rect x="0" y="24" width="300" height="30" fill="rgba(45,45,55,1)"/>
<text x="4" y="28" font-family="monospace" font-size="14" fill="rgba(220,220,220,1)" dominant-baseline="hanging">3.3</text>
</g>
<clipPath id="clip-2"><rect x="0" y="54" width="300" height="24"/></clipPath>
<g clip-path="url(#clip-2)">
<rect x="0" y="54" width="300" height="24" fill="rgba(45,45,55,1)"/>
<text x="4" y="58" font-family="monospace" font-size="14" fill="rgba(180,180,190,1)" dominant-baseline="hanging">mode</text>
</g>
<clipPath id="clip-3"><rect x="0" y="78" width="300" height="30"/></clipPath>
<g clip-path="url(#clip-3)">
<rect x="0" y="78" width="300" height="30" fill="rgba(45,45,55,1)"/>
<text x="4" y="82" font-family="monospace" font-size="14" fill="rgba(220,220,220,1)" dominant-baseline="hanging">2</text>
</g>
<clipPath id="clip-4"><rect x="0" y="108" width="300" height="24"/></clipPath>
<g clip-path="url(#clip-4)">
<rect x="0" y="108" width="300" height="24" fill="rgba(45,45,55,1)"/>
<text x="4" y="112" font-family="monospace" font-size="14" fill="rgba(180,180,190,1)" dominant-baseline="hanging">enabled</text>
</g>
<clipPath id="clip-5"><rect x="0" y="132" width="300" height="30"/></clipPath>
<g clip-path="url(#clip-5)">
<rect x="0" y="132" width="300" height="30" fill="rgba(45,45,55,1)"/>
<rect x="8" y="139" width="16" height="16" fill="rgba(0,140,200,1)"/>
<text x="10" y="140" font-family="monospace" font-size="13" fill="rgba(240,240,240,1)" dominant-baseline="hanging">✓</text>
<rect x="8" y="139" width="16" height="16" stroke="rgba(90,90,105,1)" fill="none" stroke-width="1.5"/>
</g>
</svg>
