<svg xmlns="http://www.w3.org/2000/svg" viewBox="0 0 800 600">
<rect width="800" height="600" fill="rgba(30,30,30,1)"/>
<clipPath id="clip-0"><rect x="0" y="0" width="800" height="478"/></clipPath>
<g clip-path="url(#clip-0)">
<rect x="60" y="10" width="730" height="423" fill="rgba(30,30,30,1)"/>
<rect x="60" y="10" width="730" height="423" stroke="rgba(90,90,105,1)" fill="none" stroke-width="1"/>
<clipPath id="clip-1"><rect x="60" y="10" width="730" height="423"/></clipPath>
<g clip-path="url(#clip-1)">
<line x1="93.1818" y1="10" x2="93.1818" y2="433" stroke="rgba(60,60,70,1)" stroke-width="1"/>
<line x1="198.803" y1="10" x2="198.803" y2="433" stroke="rgba(60,60,70,1)" stroke-width="1"/>
<line x1="304.424" y1="10" x2="304.424" y2="433" stroke="rgba(60,60,70,1)" stroke-width="1"/>
<line x1="410.045" y1="10" x2="410.045" y2="433" stroke="rgba(60,60,70,1)" stroke-width="1"/>
<line x1="515.666" y1="10" x2="515.666" y2="433" stroke="rgba(60,60,70,1)" stroke-width="1"/>
<line x1="621.287" y1="10" x2="621.287" y2="433" stroke="rgba(60,60,70,1)" stroke-width="1"/>
<line x1="726.908" y1="10" x2="726.908" y2="433" stroke="rgba(60,60,70,1)" stroke-width="1"/>
<line x1="60" y1="413.774" x2="790" y2="413.774" stroke="rgba(60,60,70,1)" stroke-width="1"/>
<line x1="60" y1="317.637" x2="790" y2="317.637" stroke="rgba(60,60,70,1)" stroke-width="1"/>
<line x1="60" y1="221.5" x2="790" y2="221.5" stroke="rgba(60,60,70,1)" stroke-width="1"/>
<line x1="60" y1="125.363" x2="790" y2="125.363" stroke="rgba(60,60,70,1)" stroke-width="1"/>
<line x1="60" y1="29.2263" x2="790" y2="29.2263" stroke="rgba(60,60,70,1)" stroke-width="1"/>
<line x1="60" y1="10" x2="60" y2="433" stroke="rgba(90,90,105,1)" stroke-width="1"/>
<line x1="60" y1="433" x2="790" y2="433" stroke="rgba(90,90,105,1)" stroke-width="1"/>
<polyline points="93.1818,221.5 94.5117,211.82 95.8417,202.165 97.1716,192.558 98.5015,183.025 99.8315,173.59 101.161,164.276 102.491,155.107 103.821,146.107 105.151,137.297 106.481,128.702 107.811,120.341 109.141,112.238 110.471,104.411 111.801,96.8816 113.131,89.668 114.461,82.7888 115.791,76.2613 117.121,70.1023 118.451,64.3272 119.78,58.9507 121.11,53.9865 122.44,49.4472 123.77,45.3442 125.1,41.688 126.43,38.4878 127.76,35.7518 129.09,33.4869 130.42,31.6988 131.75,30.3921 133.08,29.5701 134.41,29.2349 135.74,29.3873 137.07,30.0269 138.4,31.1522 139.729,32.7602 141.059,34.8469 142.389,37.407 143.719,40.434 145.049,43.9202 146.379,47.8568 147.709,52.2338 149.039,57.0401 150.369,62.2635 151.699,67.8908 153.029,73.9077 154.359,80.2988 155.689,87.0481 157.019,94.1384 158.349,101.552 159.678,109.269 161.008,117.271 162.338,125.538 163.668,134.048 164.998,142.78 166.328,151.711 167.658,160.819 168.988,170.081 170.318,179.474 171.648,188.973 172.978,198.555 174.308,208.195 175.638,217.869 176.968,227.552 178.298,237.219 179.627,246.847 180.957,256.41 182.287,265.885 183.617,275.247 184.947,284.473 186.277,293.539 187.607,302.423 188.937,311.101 190.267,319.552 191.597,327.755 192.927,335.688 194.257,343.331 195.587,350.665 196.917,357.672 198.246,364.333 199.576,370.632 200.906,376.553 202.236,382.081 203.566,387.201 204.896,391.901 206.226,396.169 207.556,399.994 208.886,403.366 210.216,406.277 211.546,408.719 212.876,410.687 214.206,412.174 215.536,413.179 216.866,413.697 218.195,413.727 219.525,413.27 220.855,412.327 222.185,410.899 223.515,408.991 224.845,406.608 226.175,403.755 227.505,400.44 228.835,396.672 230.165,392.458 231.495,387.812 232.825,382.743 234.155,377.266 235.485,371.393 236.815,365.141 238.144,358.524 239.474,351.559 240.804,344.265 242.134,336.659 243.464,328.761 244.794,320.592 246.124,312.171 247.454,303.519 248.784,294.66 250.114,285.616 251.444,276.408 252.774,267.062 254.104,257.6 255.434,248.046 256.764,238.425 258.093,228.761 259.423,219.079 260.753,209.403 262.083,199.757 263.413,190.167 264.743,180.656 266.073,171.249 267.403,161.969 268.733,152.84 270.063,143.885 271.393,135.128 272.723,126.589 274.053,118.291 275.383,110.254 276.713,102.5 278.042,95.0478 279.372,87.9161 280.702,81.1233 282.032,74.6864 283.362,68.6219 284.692,62.9452 286.022,57.6705 287.352,52.8114 288.682,48.3801 290.012,44.3879 291.342,40.8449 292.672,37.76 294.002,35.1412 295.332,32.995 296.661,31.3269 297.991,30.1411 299.321,29.4406 300.651,29.2273 301.981,29.5016 303.311,30.2628 304.641,31.5091 305.971,33.2372 307.301,35.4428 308.631,38.1203 309.961,41.2628 311.291,44.8625 312.621,48.9102 313.951,53.3956 315.281,58.3074 316.611,63.633 317.94,69.3591 319.27,75.471 320.6,81.9532 321.93,88.7894 323.26,95.9622 324.59,103.453 325.92,111.244 327.25,119.314 328.58,127.643 329.91,136.211 331.24,144.995 332.57,153.972 333.9,163.121 335.23,172.418 336.559,181.84 337.889,191.362 339.219,200.961 340.549,210.611 341.879,220.289 343.209,229.971 344.539,239.631 345.869,249.245 347.199,258.788 348.529,268.237 349.859,277.567 351.189,286.756 352.519,295.778 353.849,304.613 355.179,313.236 356.508,321.627 357.838,329.764 359.168,337.626 360.498,345.194 361.828,352.448 363.158,359.37 364.488,365.943 365.818,372.149 367.148,377.972 368.478,383.399 369.808,388.416 371.138,393.009 372.468,397.167 373.798,400.88 375.128,404.137 376.457,406.932 377.787,409.256 379.117,411.104 380.447,412.471 381.777,413.354 383.107,413.75 384.437,413.658 385.767,413.08 387.097,412.015 388.427,410.467 389.757,408.44 391.087,405.939 392.417,402.97 393.747,399.54 395.077,395.66 396.406,391.337 397.736,386.584 399.066,381.412 400.396,375.834 401.726,369.865 403.056,363.52 404.386,356.815 405.716,349.766 407.046,342.392 408.376,334.711 409.706,326.744 411.036,318.509 412.366,310.029 413.696,301.323 415.026,292.416 416.355,283.328 417.685,274.084 419.015,264.706 420.345,255.219 421.675,245.646 423.005,236.012 424.335,226.342 425.665,216.658 426.995,206.988 428.325,197.354 429.655,187.781 430.985,178.294 432.315,168.916 433.645,159.672 434.975,150.584 436.304,141.677 437.634,132.972 438.964,124.491 440.294,116.256 441.624,108.289 442.954,100.608 444.284,93.2341 445.614,86.1855 446.944,79.48 448.274,73.1348 449.604,67.1658 450.934,61.5883 452.264,56.4163 453.594,51.663 454.923,47.3405 456.253,43.4596 457.583,40.0304 458.913,37.0613 460.243,34.5601 461.573,32.5329 462.903,30.9851 464.233,29.9204 465.563,29.3416 466.893,29.2501 468.223,29.6463 469.553,30.529 470.883,31.8961 472.213,33.744 473.543,36.0682 474.872,38.8626 476.202,42.1203 477.532,45.8328 478.862,49.991 480.192,54.5841 481.522,59.6005 482.852,65.0276 484.182,70.8515 485.512,77.0574 486.842,83.6298 488.172,90.5518 489.502,97.8059 490.832,105.374 492.162,113.236 493.492,121.373 494.821,129.764 496.151,138.387 497.481,147.222 498.811,156.244 500.141,165.433 501.471,174.763 502.801,184.212 504.131,193.755 505.461,203.369 506.791,213.029 508.121,222.711 509.451,232.389 510.781,242.039 512.111,251.638 513.441,261.16 514.77,270.582 516.1,279.879 517.43,289.028 518.76,298.005 520.09,306.789 521.42,315.357 522.75,323.686 524.08,331.756 525.41,339.547 526.74,347.038 528.07,354.211 529.4,361.047 530.73,367.529 532.06,373.641 533.39,379.367 534.719,384.693 536.049,389.604 537.379,394.09 538.709,398.137 540.039,401.737 541.369,404.88 542.699,407.557 544.029,409.763 545.359,411.491 546.689,412.737 548.019,413.498 549.349,413.773 550.679,413.559 552.009,412.859 553.339,411.673 554.668,410.005 555.998,407.859 557.328,405.24 558.658,402.155 559.988,398.612 561.318,394.62 562.648,390.189 563.978,385.329 565.308,380.055 566.638,374.378 567.968,368.314 569.298,361.877 570.628,355.084 571.958,347.952 573.287,340.5 574.617,332.746 575.947,324.709 577.277,316.411 578.607,307.872 579.937,299.115 581.267,290.16 582.597,281.031 583.927,271.751 585.257,262.344 586.587,252.833 587.917,243.243 589.247,233.597 590.577,223.921 591.907,214.239 593.237,204.575 594.566,194.954 595.896,185.4 597.226,175.938 598.556,166.592 599.886,157.384 601.216,148.34 602.546,139.481 603.876,130.829 605.206,122.408 606.536,114.239 607.866,106.341 609.196,98.7351 610.526,91.4407 611.856,84.4762 613.185,77.8593 614.515,71.6066 615.845,65.7341 617.175,60.2567 618.505,55.1882 619.835,50.5415 621.165,46.3285 622.495,42.5596 623.825,39.2446 625.155,36.3919 626.485,34.0086 627.815,32.1009 629.145,30.6735 630.475,29.73 631.805,29.273 633.134,29.3035 634.464,29.8214 635.794,30.8255 637.124,32.3131 638.454,34.2806 639.784,36.7229 641.114,39.6339 642.444,43.0061 643.774,46.831 645.104,51.0989 646.434,55.799 647.764,60.9193 649.094,66.4469 650.424,72.3677 651.754,78.6668 653.083,85.3282 654.413,92.3348 655.743,99.6691 657.073,107.312 658.403,115.245 659.733,123.448 661.063,131.899 662.393,140.577 663.723,149.461 665.053,158.527 666.383,167.753 667.713,177.115 669.043,186.59 670.373,196.153 671.703,205.781 673.032,215.448 674.362,225.131 675.692,234.805 677.022,244.445 678.352,254.027 679.682,263.526 681.012,272.919 682.342,282.181 683.672,291.289 685.002,300.22 686.332,308.952 687.662,317.462 688.992,325.729 690.322,333.731 691.651,341.448 692.981,348.862 694.311,355.952 695.641,362.701 696.971,369.092 698.301,375.109 699.631,380.736 700.961,385.96 702.291,390.766 703.621,395.143 704.951,399.08 706.281,402.566 707.611,405.593 708.941,408.153 710.271,410.24 711.6,411.848 712.93,412.973 714.26,413.613 715.59,413.765 716.92,413.43 718.25,412.608 719.58,411.301 720.91,409.513 722.24,407.248 723.57,404.512 724.9,401.312 726.23,397.656 727.56,393.553 728.89,389.013 730.22,384.049 731.549,378.673 732.879,372.898 734.209,366.739 735.539,360.211 736.869,353.332 738.199,346.118 739.529,338.589 740.859,330.762 742.189,322.659 743.519,314.298 744.849,305.703 746.179,296.893 747.509,287.893 748.839,278.724 750.169,269.41 751.498,259.975 752.828,250.442 754.158,240.835 755.488,231.18 756.818,221.5" stroke="rgba(0,140,200,1)" fill="none" stroke-width="2"/>
</g>
<line x1="93.1818" y1="433" x2="93.1818" y2="438" stroke="rgba(90,90,105,1)" stroke-width="1"/>
<text x="78.1818" y="440" font-family="monospace" font-size="11" fill="rgba(180,180,190,1)" dominant-baseline="hanging">-0</text>
<line x1="198.803" y1="433" x2="198.803" y2="438" stroke="rgba(90,90,105,1)" stroke-width="1"/>
<text x="183.803" y="440" font-family="monospace" font-size="11" fill="rgba(180,180,190,1)" dominant-baseline="hanging">2</text>
<line x1="304.424" y1="433" x2="304.424" y2="438" stroke="rgba(90,90,105,1)" stroke-width="1"/>
<text x="289.424" y="440" font-family="monospace" font-size="11" fill="rgba(180,180,190,1)" dominant-baseline="hanging">4</text>
<line x1="410.045" y1="433" x2="410.045" y2="438" stroke="rgba(90,90,105,1)" stroke-width="1"/>
<text x="395.045" y="440" font-family="monospace" font-size="11" fill="rgba(180,180,190,1)" dominant-baseline="hanging">6</text>
<line x1="515.666" y1="433" x2="515.666" y2="438" stroke="rgba(90,90,105,1)" stroke-width="1"/>
<text x="500.666" y="440" font-family="monospace" font-size="11" fill="rgba(180,180,190,1)" dominant-baseline="hanging">8</text>
<line x1="621.287" y1="433" x2="621.287" y2="438" stroke="rgba(90,90,105,1)" stroke-width="1"/>
<text x="606.287" y="440" font-family="monospace" font-size="11" fill="rgba(180,180,190,1)" dominant-baseline="hanging">10</text>
<line x1="726.908" y1="433" x2="726.908" y2="438" stroke="rgba(90,90,105,1)" stroke-width="1"/>
<text x="711.908" y="440" font-family="monospace" font-size="11" fill="rgba(180,180,190,1)" dominant-baseline="hanging">12</text>
<line x1="55" y1="413.774" x2="60" y2="413.774" stroke="rgba(90,90,105,1)" stroke-width="1"/>
<text x="39.8" y="407.774" font-family="monospace" font-size="11" fill="rgba(180,180,190,1)" dominant-baseline="hanging">-1</text>
<line x1="55" y1="317.637" x2="60" y2="317.637" stroke="rgba(90,90,105,1)" stroke-width="1"/>
<text x="26.6" y="311.637" font-family="monospace" font-size="11" fill="rgba(180,180,190,1)" dominant-baseline="hanging">-0.5</text>
<line x1="55" y1="221.5" x2="60" y2="221.5" stroke="rgba(90,90,105,1)" stroke-width="1"/>
<text x="46.4" y="215.5" font-family="monospace" font-size="11" fill="rgba(180,180,190,1)" dominant-baseline="hanging">0</text>
<line x1="55" y1="125.363" x2="60" y2="125.363" stroke="rgba(90,90,105,1)" stroke-width="1"/>
<text x="33.2" y="119.363" font-family="monospace" font-size="11" fill="rgba(180,180,190,1)" dominant-baseline="hanging">0.5</text>
<line x1="55" y1="29.2263" x2="60" y2="29.2263" stroke="rgba(90,90,105,1)" stroke-width="1"/>
<text x="46.4" y="23.2263" font-family="monospace" font-size="11" fill="rgba(180,180,190,1)" dominant-baseline="hanging">1</text>
<text x="395" y="451" font-family="monospace" font-size="12" fill="rgba(220,220,220,1)" dominant-baseline="hanging">Time (rad)</text>
<text x="10" y="221.5" font-family="monospace" font-size="12" fill="rgba(220,220,220,1)" text-anchor="middle" dominant-baseline="central" transform="rotate(-90 10 221.5)">Amplitude</text>
</g>
<clipPath id="clip-2"><rect x="0" y="478" width="800" height="30"/></clipPath>
<g clip-path="url(#clip-2)">
<rect x="0" y="490" width="800" height="6" fill="rgba(60,60,70,1)"/>
<rect x="151.232" y="478" width="12" height="30" fill="rgba(0,140,200,1)"/>
</g>
<clipPath id="clip-3"><rect x="0" y="508" width="800" height="30"/></clipPath>
<g clip-path="url(#clip-3)">
<rect x="0" y="520" width="800" height="6" fill="rgba(60,60,70,1)"/>
<rect x="144.735" y="508" width="12" height="30" fill="rgba(0,140,200,1)"/>
</g>
<clipPath id="clip-4"><rect x="0" y="538" width="800" height="30"/></clipPath>
<g clip-path="url(#clip-4)">
<rect x="0" y="538" width="800" height="30" fill="rgba(45,45,55,1)"/>
<rect x="8" y="545" width="16" height="16" fill="rgba(45,45,55,1)"/>
<rect x="8" y="545" width="16" height="16" stroke="rgba(90,90,105,1)" fill="none" stroke-width="1.5"/>
<text x="32" y="545" font-family="monospace" font-size="14" fill="rgba(220,220,220,1)" dominant-baseline="hanging">Show cosine</text>
</g>
</svg>
