<svg xmlns="http://www.w3.org/2000/svg" viewBox="0 0 1024 768">
<rect width="1024" height="768" fill="rgba(30,30,30,1)"/>
<clipPath id="clip-0"><rect x="0" y="0" width="1024" height="32"/></clipPath>
<g clip-path="url(#clip-0)">
<rect x="0" y="0" width="240" height="32" fill="rgba(42,42,58,1)"/>
<rect x="0" y="0" width="96" height="32" fill="rgba(30,30,46,1)"/>
<text x="16" y="8" font-family="monospace" font-size="14" fill="rgba(220,220,240,1)" dominant-baseline="hanging">Waveform</text>
<rect x="0" y="30" width="96" height="2" fill="rgba(124,111,255,1)"/>
<rect x="96" y="0" width="64" height="32" fill="rgba(42,42,58,1)"/>
<text x="112" y="8" font-family="monospace" font-size="14" fill="rgba(140,140,160,1)" dominant-baseline="hanging">Data</text>
<rect x="160" y="0" width="80" height="32" fill="rgba(42,42,58,1)"/>
<text x="176" y="8" font-family="monospace" font-size="14" fill="rgba(140,140,160,1)" dominant-baseline="hanging">Export</text>
</g>
<clipPath id="clip-1"><rect x="0" y="32" width="30" height="618"/></clipPath>
<g clip-path="url(#clip-1)">
<rect x="12" y="32" width="6" height="618" fill="rgba(60,60,70,1)"/>
<rect x="0" y="153.2" width="30" height="12" fill="rgba(0,140,200,1)"/>
</g>
<clipPath id="clip-2"><rect x="30" y="32" width="994" height="618"/></clipPath>
<g clip-path="url(#clip-2)">
<rect x="30" y="32" width="994" height="618" rx="6" fill="rgba(45,45,55,1)"/>
<line x1="30" y1="341" x2="1024" y2="341" stroke="rgba(60,60,70,1)" stroke-width="1"/>
<polyline points="30,341 31,338.187 32,335.375 33,332.564 34,329.754 35,326.946 36,324.14 37,321.337 38,318.537 39,315.741 40,312.948 41,310.161 42,307.378 43,304.6 44,301.828 45,299.063 46,296.304 47,293.552 48,290.808 49,288.072 50,285.345 51,282.626 52,279.917 53,277.217 54,274.528 55,271.849 56,269.181 57,266.525 58,263.88 59,261.248 60,258.629 61,256.023 62,253.43 63,250.852 64,248.288 65,245.739 66,243.204 67,240.686 68,238.184 69,235.698 70,233.228 71,230.776 72,228.342 73,225.926 74,223.528 75,221.149 76,218.789 77,216.448 78,214.128 79,211.827 80,209.548 81,207.289 82,205.052 83,202.836 84,200.643 85,198.472 86,196.324 87,194.199 88,192.097 89,190.019 90,187.965 91,185.936 92,183.932 93,181.952 94,179.998 95,178.07 96,176.168 97,174.292 98,172.443 99,170.621 100,168.826 101,167.058 102,165.318 103,163.607 104,161.924 105,160.269 106,158.643 107,157.046 108,155.479 109,153.942 110,152.434 111,150.956 112,149.509 113,148.093 114,146.707 115,145.352 116,144.029 117,142.737 118,141.477 119,140.248 120,139.052 121,137.888 122,136.757 123,135.658 124,134.592 125,133.559 126,132.559 127,131.592 128,130.659 129,129.759 130,128.894 131,128.062 132,127.264 133,126.5 134,125.771 135,125.076 136,124.415 137,123.789 138,123.198 139,122.642 140,122.12 141,121.634 142,121.183 143,120.766 144,120.385 145,120.039 146,119.729 147,119.454 148,119.214 149,119.01 150,118.841 151,118.708 152,118.61 153,118.548 154,118.521 155,118.53 156,118.574 157,118.654 158,118.77 159,118.921 160,119.108 161,119.33 162,119.587 163,119.88 164,120.208 165,120.571 166,120.97 167,121.404 168,121.873 169,122.377 170,122.916 171,123.49 172,124.098 173,124.741 174,125.419 175,126.131 176,126.878 177,127.658 178,128.473 179,129.322 180,130.205 181,131.121 182,132.071 183,133.054 184,134.071 185,135.121 186,136.203 187,137.318 188,138.466 189,139.646 190,140.859 191,142.103 192,143.379 193,144.687 194,146.026 195,147.396 196,148.797 197,150.229 198,151.691 199,153.184 200,154.707 201,156.259 202,157.841 203,159.452 204,161.093 205,162.762 206,164.459 207,166.185 208,167.938 209,169.72 210,171.528 211,173.364 212,175.227 213,177.116 214,179.031 215,180.972 216,182.939 217,184.931 218,186.948 219,188.989 220,191.055 221,193.145 222,195.258 223,197.395 224,199.555 225,201.737 226,203.941 227,206.168 228,208.416 229,210.685 230,212.975 231,215.285 232,217.616 233,219.966 234,222.336 235,224.725 236,227.132 237,229.557 238,232 239,234.461 240,236.939 241,239.433 242,241.943 243,244.47 244,247.011 245,249.568 246,252.139 247,254.725 248,257.324 249,259.937 250,262.563 251,265.201 252,267.851 253,270.514 254,273.187 255,275.871 256,278.566 257,281.27 258,283.984 259,286.707 260,289.439 261,292.179 262,294.927 263,297.683 264,300.445 265,303.213 266,305.988 267,308.768 268,311.554 269,314.344 270,317.139 271,319.937 272,322.738 273,325.543 274,328.35 275,331.159 276,333.97 277,336.781 278,339.594 279,342.406 280,345.219 281,348.03 282,350.841 283,353.65 284,356.457 285,359.262 286,362.063 287,364.861 288,367.656 289,370.446 290,373.232 291,376.012 292,378.787 293,381.555 294,384.317 295,387.073 296,389.821 297,392.561 298,395.293 299,398.016 300,400.73 301,403.435 302,406.129 303,408.813 304,411.487 305,414.149 306,416.799 307,419.437 308,422.063 309,424.676 310,427.275 311,429.861 312,432.432 313,434.989 314,437.531 315,440.057 316,442.567 317,445.062 318,447.539 319,450 320,452.443 321,454.868 322,457.275 323,459.664 324,462.034 325,464.384 326,466.715 327,469.025 328,471.315 329,473.584 330,475.832 331,478.059 332,480.263 333,482.445 334,484.605 335,486.742 336,488.855 337,490.945 338,493.011 339,495.052 340,497.069 341,499.061 342,501.028 343,502.969 344,504.884 345,506.773 346,508.636 347,510.472 348,512.28 349,514.062 350,515.815 351,517.541 352,519.238 353,520.907 354,522.548 355,524.159 356,525.741 357,527.293 358,528.816 359,530.309 360,531.771 361,533.203 362,534.604 363,535.974 364,537.313 365,538.621 366,539.897 367,541.141 368,542.354 369,543.534 370,544.682 371,545.797 372,546.88 373,547.929 374,548.946 375,549.929 376,550.879 377,551.795 378,552.678 379,553.527 380,554.341 381,555.122 382,555.869 383,556.581 384,557.259 385,557.902 386,558.51 387,559.084 388,559.623 389,560.127 390,560.596 391,561.03 392,561.429 393,561.792 394,562.12 395,562.413 396,562.67 397,562.892 398,563.079 399,563.23 400,563.346 401,563.426 402,563.47 403,563.479 404,563.452 405,563.39 406,563.292 407,563.159 408,562.99 409,562.786 410,562.546 411,562.271 412,561.961 413,561.615 414,561.234 415,560.817 416,560.366 417,559.88 418,559.358 419,558.802 420,558.211 421,557.585 422,556.924 423,556.229 424,555.5 425,554.736 426,553.938 427,553.106 428,552.241 429,551.341 430,550.408 431,549.441 432,548.442 433,547.408 434,546.342 435,545.243 436,544.112 437,542.948 438,541.752 439,540.523 440,539.263 441,537.971 442,536.648 443,535.293 444,533.907 445,532.491 446,531.044 447,529.566 448,528.058 449,526.521 450,524.953 451,523.357 452,521.731 453,520.076 454,518.393 455,516.682 456,514.942 457,513.174 458,511.379 459,509.557 460,507.708 461,505.832 462,503.93 463,502.002 464,500.048 465,498.068 466,496.064 467,494.035 468,491.981 469,489.903 470,487.801 471,485.676 472,483.528 473,481.357 474,479.164 475,476.948 476,474.711 477,472.452 478,470.173 479,467.872 480,465.552 481,463.211 482,460.851 483,458.472 484,456.074 485,453.658 486,451.223 487,448.772 488,446.302 489,443.816 490,441.314 491,438.796 492,436.261 493,433.712 494,431.148 495,428.569 496,425.977 497,423.371 498,420.752 499,418.119 500,415.475 501,412.819 502,410.151 503,407.472 504,404.783 505,402.083 506,399.374 507,396.655 508,393.928 509,391.192 510,388.448 511,385.696 512,382.937 513,380.172 514,377.4 515,374.622 516,371.839 517,369.052 518,366.259 519,363.463 520,360.663 521,357.86 522,355.054 523,352.246 524,349.436 525,346.625 526,343.813 527,341 528,338.188 529,335.375 530,332.564 531,329.754 532,326.946 533,324.14 534,321.337 535,318.537 536,315.741 537,312.948 538,310.161 539,307.378 540,304.6 541,301.828 542,299.063 543,296.304 544,293.552 545,290.808 546,288.072 547,285.345 548,282.626 549,279.917 550,277.217 551,274.527 552,271.849 553,269.181 554,266.525 555,263.88 556,261.248 557,258.629 558,256.023 559,253.43 560,250.852 561,248.288 562,245.739 563,243.204 564,240.686 565,238.183 566,235.698 567,233.228 568,230.776 569,228.342 570,225.926 571,223.528 572,221.149 573,218.789 574,216.448 575,214.128 576,211.827 577,209.548 578,207.289 579,205.052 580,202.836 581,200.643 582,198.472 583,196.324 584,194.199 585,192.097 586,190.019 587,187.965 588,185.936 589,183.932 590,181.952 591,179.998 592,178.07 593,176.168 594,174.292 595,172.443 596,170.621 597,168.826 598,167.058 599,165.318 600,163.607 601,161.924 602,160.269 603,158.643 604,157.047 605,155.479 606,153.942 607,152.434 608,150.956 609,149.509 610,148.093 611,146.707 612,145.352 613,144.029 614,142.737 615,141.477 616,140.248 617,139.052 618,137.888 619,136.757 620,135.658 621,134.592 622,133.559 623,132.559 624,131.592 625,130.659 626,129.759 627,128.894 628,128.062 629,127.264 630,126.5 631,125.771 632,125.076 633,124.415 634,123.789 635,123.198 636,122.642 637,122.12 638,121.634 639,121.183 640,120.766 641,120.385 642,120.039 643,119.729 644,119.454 645,119.214 646,119.01 647,118.841 648,118.708 649,118.61 650,118.548 651,118.521 652,118.53 653,118.574 654,118.654 655,118.77 656,118.921 657,119.108 658,119.33 659,119.587 660,119.88 661,120.208 662,120.571 663,120.97 664,121.404 665,121.873 666,122.377 667,122.916 668,123.49 669,124.098 670,124.741 671,125.419 672,126.131 673,126.878 674,127.659 675,128.473 676,129.322 677,130.205 678,131.121 679,132.071 680,133.054 681,134.071 682,135.12 683,136.203 684,137.318 685,138.466 686,139.646 687,140.859 688,142.103 689,143.379 690,144.687 691,146.026 692,147.396 693,148.797 694,150.229 695,151.691 696,153.184 697,154.707 698,156.259 699,157.841 700,159.452 701,161.093 702,162.762 703,164.459 704,166.185 705,167.938 706,169.72 707,171.528 708,173.364 709,175.227 710,177.116 711,179.031 712,180.972 713,182.939 714,184.931 715,186.948 716,188.989 717,191.055 718,193.145 719,195.258 720,197.395 721,199.555 722,201.737 723,203.941 724,206.168 725,208.416 726,210.685 727,212.975 728,215.286 729,217.616 730,219.966 731,222.336 732,224.725 733,227.132 734,229.557 735,232 736,234.461 737,236.938 738,239.433 739,241.943 740,244.47 741,247.011 742,249.568 743,252.139 744,254.725 745,257.324 746,259.937 747,262.563 748,265.201 749,267.851 750,270.514 751,273.187 752,275.871 753,278.566 754,281.27 755,283.984 756,286.707 757,289.439 758,292.179 759,294.927 760,297.682 761,300.445 762,303.213 763,305.988 764,308.768 765,311.554 766,314.344 767,317.139 768,319.937 769,322.738 770,325.543 771,328.35 772,331.159 773,333.97 774,336.781 775,339.594 776,342.406 777,345.219 778,348.03 779,350.841 780,353.65 781,356.457 782,359.262 783,362.063 784,364.861 785,367.656 786,370.446 787,373.232 788,376.012 789,378.787 790,381.555 791,384.318 792,387.073 793,389.821 794,392.561 795,395.293 796,398.016 797,400.73 798,403.435 799,406.129 800,408.813 801,411.486 802,414.149 803,416.799 804,419.437 805,422.063 806,424.676 807,427.275 808,429.861 809,432.432 810,434.989 811,437.53 812,440.057 813,442.567 814,445.062 815,447.539 816,450 817,452.443 818,454.868 819,457.275 820,459.664 821,462.034 822,464.384 823,466.715 824,469.025 825,471.315 826,473.584 827,475.832 828,478.059 829,480.263 830,482.445 831,484.605 832,486.742 833,488.855 834,490.945 835,493.011 836,495.052 837,497.069 838,499.061 839,501.028 840,502.969 841,504.884 842,506.773 843,508.636 844,510.472 845,512.28 846,514.062 847,515.815 848,517.541 849,519.238 850,520.907 851,522.548 852,524.159 853,525.741 854,527.293 855,528.816 856,530.309 857,531.771 858,533.203 859,534.604 860,535.974 861,537.313 862,538.621 863,539.897 864,541.141 865,542.354 866,543.534 867,544.682 868,545.797 869,546.88 870,547.929 871,548.946 872,549.929 873,550.879 874,551.795 875,552.678 876,553.527 877,554.341 878,555.122 879,555.869 880,556.581 881,557.259 882,557.902 883,558.51 884,559.084 885,559.623 886,560.127 887,560.596 888,561.03 889,561.429 890,561.792 891,562.12 892,562.413 893,562.67 894,562.892 895,563.079 896,563.23 897,563.346 898,563.426 899,563.47 900,563.479 901,563.452 902,563.39 903,563.292 904,563.159 905,562.99 906,562.786 907,562.546 908,562.271 909,561.961 910,561.615 911,561.234 912,560.817 913,560.366 914,559.88 915,559.358 916,558.802 917,558.211 918,557.585 919,556.924 920,556.229 921,555.5 922,554.736 923,553.938 924,553.106 925,552.241 926,551.341 927,550.408 928,549.441 929,548.441 930,547.408 931,546.342 932,545.243 933,544.112 934,542.948 935,541.752 936,540.523 937,539.263 938,537.971 939,536.648 940,535.293 941,533.907 942,532.491 943,531.043 944,529.566 945,528.058 946,526.521 947,524.953 948,523.357 949,521.731 950,520.076 951,518.393 952,516.682 953,514.942 954,513.174 955,511.379 956,509.557 957,507.708 958,505.832 959,503.93 960,502.002 961,500.048 962,498.068 963,496.064 964,494.035 965,491.981 966,489.903 967,487.801 968,485.676 969,483.528 970,481.357 971,479.164 972,476.948 973,474.711 974,472.452 975,470.173 976,467.872 977,465.552 978,463.211 979,460.851 980,458.472 981,456.074 982,453.658 983,451.223 984,448.772 985,446.302 986,443.816 987,441.314 988,438.796 989,436.261 990,433.712 991,431.148 992,428.57 993,425.977 994,423.371 995,420.752 996,418.12 997,415.475 998,412.819 999,410.151 1000,407.472 1001,404.783 1002,402.083 1003,399.374 1004,396.655 1005,393.928 1006,391.192 1007,388.448 1008,385.696 1009,382.937 1010,380.172 1011,377.4 1012,374.622 1013,371.839 1014,369.052 1015,366.259 1016,363.463 1017,360.663 1018,357.86 1019,355.054 1020,352.246 1021,349.436 1022,346.625 1023,343.812" stroke="rgba(0,140,200,1)" fill="none" stroke-width="2"/>
<circle cx="130" cy="128.894" r="3" fill="rgba(0,160,220,1)"/>
<circle cx="180" cy="130.205" r="3" fill="rgba(0,160,220,1)"/>
<circle cx="380" cy="554.341" r="3" fill="rgba(0,160,220,1)"/>
<circle cx="430" cy="550.408" r="3" fill="rgba(0,160,220,1)"/>
<circle cx="630" cy="126.5" r="3" fill="rgba(0,160,220,1)"/>
<circle cx="680" cy="133.054" r="3" fill="rgba(0,160,220,1)"/>
<circle cx="880" cy="556.581" r="3" fill="rgba(0,160,220,1)"/>
<circle cx="930" cy="547.408" r="3" fill="rgba(0,160,220,1)"/>
</g>
<clipPath id="clip-3"><rect x="0" y="650" width="1024" height="30"/></clipPath>
<g clip-path="url(#clip-3)">
<rect x="0" y="662" width="1024" height="6" fill="rgba(60,60,70,1)"/>
<rect x="194.222" y="650" width="12" height="30" fill="rgba(0,140,200,1)"/>
</g>
<clipPath id="clip-4"><rect x="0" y="680" width="200" height="32"/></clipPath>
<g clip-path="url(#clip-4)">
<rect x="0" y="680" width="200" height="30" fill="rgba(45,45,55,1)"/>
<text x="8" y="687" font-family="monospace" font-size="14" fill="rgba(220,220,220,1)" dominant-baseline="hanging">Sine</text>
<text x="180" y="687" font-family="monospace" font-size="14" fill="rgba(180,180,190,1)" dominant-baseline="hanging">▾</text>
</g>
<clipPath id="clip-5"><rect x="200" y="680" width="200" height="32"/></clipPath>
<g clip-path="url(#clip-5)">
<rect x="200" y="680" width="200" height="30" fill="rgba(45,45,55,1)"/>
<rect x="208" y="687" width="16" height="16" fill="rgba(45,45,55,1)"/>
<rect x="208" y="687" width="16" height="16" stroke="rgba(90,90,105,1)" fill="none" stroke-width="1.5"/>
<text x="232" y="687" font-family="monospace" font-size="14" fill="rgba(220,220,220,1)" dominant-baseline="hanging">Show harmonics</text>
</g>
<clipPath id="clip-6"><rect x="400" y="680" width="200" height="32"/></clipPath>
<g clip-path="url(#clip-6)">
<rect x="400" y="680" width="200" height="32" fill="rgba(40,105,180,1)"/>
<rect x="400" y="680" width="200" height="32" stroke="rgba(60,140,220,1)" fill="none" stroke-width="1"/>
<text x="408" y="687" font-family="monospace" font-size="14" fill="rgba(240,240,240,1)" dominant-baseline="hanging">Export SVG</text>
</g>
<clipPath id="clip-7"><rect x="0" y="712" width="1024" height="24"/></clipPath>
<g clip-path="url(#clip-7)">
<rect x="0" y="712" width="1024" height="24" fill="rgba(45,45,55,1)"/>
<text x="4" y="716" font-family="monospace" font-size="14" fill="rgba(180,180,190,1)" dominant-baseline="hanging">Pk-Pk: 1.60  RMS: 0.566  f=2.0 Hz</text>
</g>
</svg>
