<svg xmlns="http://www.w3.org/2000/svg" viewBox="0 0 900 600">
<rect width="900" height="600" fill="rgba(30,30,30,1)"/>
<clipPath id="clip-0"><rect x="0" y="0" width="694" height="568"/></clipPath>
<g clip-path="url(#clip-0)">
<clipPath id="clip-1"><rect x="0" y="0" width="694" height="22"/></clipPath>
<g clip-path="url(#clip-1)">
<rect x="0" y="0" width="694" height="22" fill="rgba(55,55,68,1)"/>
<text x="8" y="4" font-family="monospace" font-size="13" fill="rgba(220,220,220,1)" dominant-baseline="hanging">v ļ» examples</text>
</g>
<clipPath id="clip-2"><rect x="0" y="22" width="694" height="22"/></clipPath>
<g clip-path="url(#clip-2)">
<rect x="0" y="22" width="694" height="22" fill="rgba(45,45,55,1)"/>
<text x="24" y="26" font-family="monospace" font-size="13" fill="rgba(220,220,220,1)" dominant-baseline="hanging">&gt; ļ» showcase</text>
</g>
<clipPath id="clip-3"><rect x="0" y="44" width="694" height="22"/></clipPath>
<g clip-path="url(#clip-3)">
<rect x="0" y="44" width="694" height="22" fill="rgba(45,45,55,1)"/>
<text x="24" y="48" font-family="monospace" font-size="13" fill="rgba(220,220,220,1)" dominant-baseline="hanging">&gt; ļ» hello_rect</text>
</g>
<clipPath id="clip-4"><rect x="0" y="66" width="694" height="22"/></clipPath>
<g clip-path="url(#clip-4)">
<rect x="0" y="66" width="694" height="22" fill="rgba(45,45,55,1)"/>
<text x="24" y="70" font-family="monospace" font-size="13" fill="rgba(220,220,220,1)" dominant-baseline="hanging">&gt; ļ» model_dashboard</text>
</g>
<clipPath id="clip-5"><rect x="0" y="88" width="694" height="22"/></clipPath>
<g clip-path="url(#clip-5)">
<rect x="0" y="88" width="694" height="22" fill="rgba(45,45,55,1)"/>
<text x="24" y="92" font-family="monospace" font-size="13" fill="rgba(220,220,220,1)" dominant-baseline="hanging">&gt; ļ» model_plot</text>
</g>
<clipPath id="clip-6"><rect x="0" y="110" width="694" height="22"/></clipPath>
<g clip-path="url(#clip-6)">
<rect x="0" y="110" width="694" height="22" fill="rgba(45,45,55,1)"/>
<text x="24" y="114" font-family="monospace" font-size="13" fill="rgba(220,220,220,1)" dominant-baseline="hanging">&gt; ļ» model_tree_browser</text>
</g>
<clipPath id="clip-7"><rect x="0" y="132" width="694" height="22"/></clipPath>
<g clip-path="url(#clip-7)">
<rect x="0" y="132" width="694" height="22" fill="rgba(45,45,55,1)"/>
<text x="24" y="136" font-family="monospace" font-size="13" fill="rgba(220,220,220,1)" dominant-baseline="hanging">&gt; ļ» model_system_monitor</text>
</g>
<clipPath id="clip-8"><rect x="0" y="154" width="694" height="22"/></clipPath>
<g clip-path="url(#clip-8)">
<rect x="0" y="154" width="694" height="22" fill="rgba(45,45,55,1)"/>
<text x="24" y="158" font-family="monospace" font-size="13" fill="rgba(220,220,220,1)" dominant-baseline="hanging">  ļ meson.build</text>
</g>
<clipPath id="clip-9"><rect x="0" y="176" width="694" height="22"/></clipPath>
<g clip-path="url(#clip-9)">
<rect x="0" y="176" width="694" height="22" fill="rgba(45,45,55,1)"/>
<text x="24" y="180" font-family="monospace" font-size="13" fill="rgba(220,220,220,1)" dominant-baseline="hanging">  ļ README.md</text>
</g>
</g>
<clipPath id="clip-10"><rect x="694" y="0" width="6" height="568"/></clipPath>
<g clip-path="url(#clip-10)">
<rect x="694" y="0" width="6" height="568" fill="rgba(90,90,100,0.627451)"/>
</g>
<clipPath id="clip-11"><rect x="700" y="0" width="200" height="568"/></clipPath>
<g clip-path="url(#clip-11)">
<rect x="700" y="0" width="200" height="568" fill="rgba(45,45,55,1)"/>
<text x="708" y="8" font-family="monospace" font-size="13" fill="rgba(220,220,220,1)" dominant-baseline="hanging">examples</text>
<text x="708" y="26" font-family="monospace" font-size="13" fill="rgba(220,220,220,1)" dominant-baseline="hanging">type: directory</text>
<text x="708" y="44" font-family="monospace" font-size="13" fill="rgba(220,220,220,1)" dominant-baseline="hanging">entries: 8</text>
<text x="708" y="62" font-family="monospace" font-size="13" fill="rgba(220,220,220,1)" dominant-baseline="hanging">modified: 2026-07-23 16:20:41</text>
</g>
</svg>
