<svg xmlns="http://www.w3.org/2000/svg" viewBox="0 0 600 400">
<rect width="600" height="400" fill="rgba(30,30,30,1)"/>
<clipPath id="clip-0"><rect x="0" y="0" width="600" height="368"/></clipPath>
<g clip-path="url(#clip-0)">
<rect x="60" y="10" width="530" height="313" fill="rgba(30,30,30,1)"/>
<rect x="60" y="10" width="530" height="313" stroke="rgba(90,90,105,1)" fill="none" stroke-width="1"/>
<clipPath id="clip-1"><rect x="60" y="10" width="530" height="313"/></clipPath>
<g clip-path="url(#clip-1)">
<line x1="84.0909" y1="10" x2="84.0909" y2="323" stroke="rgba(60,60,70,1)" stroke-width="1"/>
<line x1="160.775" y1="10" x2="160.775" y2="323" stroke="rgba(60,60,70,1)" stroke-width="1"/>
<line x1="237.458" y1="10" x2="237.458" y2="323" stroke="rgba(60,60,70,1)" stroke-width="1"/>
<line x1="314.142" y1="10" x2="314.142" y2="323" stroke="rgba(60,60,70,1)" stroke-width="1"/>
<line x1="390.826" y1="10" x2="390.826" y2="323" stroke="rgba(60,60,70,1)" stroke-width="1"/>
<line x1="467.51" y1="10" x2="467.51" y2="323" stroke="rgba(60,60,70,1)" stroke-width="1"/>
<line x1="544.193" y1="10" x2="544.193" y2="323" stroke="rgba(60,60,70,1)" stroke-width="1"/>
<line x1="60" y1="303.536" x2="590" y2="303.536" stroke="rgba(60,60,70,1)" stroke-width="1"/>
<line x1="60" y1="265.242" x2="590" y2="265.242" stroke="rgba(60,60,70,1)" stroke-width="1"/>
<line x1="60" y1="226.948" x2="590" y2="226.948" stroke="rgba(60,60,70,1)" stroke-width="1"/>
<line x1="60" y1="188.654" x2="590" y2="188.654" stroke="rgba(60,60,70,1)" stroke-width="1"/>
<line x1="60" y1="150.36" x2="590" y2="150.36" stroke="rgba(60,60,70,1)" stroke-width="1"/>
<line x1="60" y1="112.066" x2="590" y2="112.066" stroke="rgba(60,60,70,1)" stroke-width="1"/>
<line x1="60" y1="73.7721" x2="590" y2="73.7721" stroke="rgba(60,60,70,1)" stroke-width="1"/>
<line x1="60" y1="35.4781" x2="590" y2="35.4781" stroke="rgba(60,60,70,1)" stroke-width="1"/>
<line x1="60" y1="10" x2="60" y2="323" stroke="rgba(90,90,105,1)" stroke-width="1"/>
<line x1="60" y1="323" x2="590" y2="323" stroke="rgba(90,90,105,1)" stroke-width="1"/>
<polyline points="84.0909,188.654 86.5121,176.647 88.9333,164.839 91.3545,153.275 93.7757,141.997 96.1969,131.047 98.6181,120.465 101.039,110.289 103.46,100.554 105.882,91.2939 108.303,82.5393 110.724,74.3192 113.145,66.6597 115.566,59.5843 117.988,53.1142 120.409,47.2675 122.83,42.0598 125.251,37.504 127.672,33.6102 130.094,30.3854 132.515,27.8344 134.936,25.9588 137.357,24.7576 139.778,24.2273 142.2,24.3614 144.621,25.1512 147.042,26.5852 149.463,28.6496 151.884,31.3282 154.306,34.6027 156.727,38.4524 159.148,42.8547 161.569,47.7851 163.99,53.2172 166.412,59.123 168.833,65.4729 171.254,72.2359 173.675,79.3799 176.096,86.8713 178.518,94.676 180.939,102.759 183.36,111.084 185.781,119.614 188.202,128.314 190.624,137.146 193.045,146.074 195.466,155.06 197.887,164.067 200.308,173.06 202.73,182.002 205.151,190.858 207.572,199.595 209.993,208.178 212.414,216.576 214.836,224.756 217.257,232.689 219.678,240.346 222.099,247.701 224.52,254.727 226.942,261.4 229.363,267.699 231.784,273.602 234.205,279.092 236.626,284.151 239.048,288.764 241.469,292.918 243.89,296.604 246.311,299.811 248.732,302.533 251.153,304.766 253.575,306.506 255.996,307.753 258.417,308.507 260.838,308.773 263.259,308.554 265.681,307.859 268.102,306.695 270.523,305.074 272.944,303.008 275.365,300.51 277.787,297.595 280.208,294.282 282.629,290.587 285.05,286.531 287.471,282.134 289.893,277.418 292.314,272.407 294.735,267.123 297.156,261.592 299.577,255.838 301.999,249.888 304.42,243.767 306.841,237.503 309.262,231.122 311.683,224.651 314.105,218.117 316.526,211.547 318.947,204.969 321.368,198.407 323.789,191.889 326.211,185.44 328.632,179.084 331.053,172.847 333.474,166.751 335.895,160.819 338.317,155.073 340.738,149.534 343.159,144.22 345.58,139.151 348.001,134.344 350.423,129.814 352.844,125.576 355.265,121.645 357.686,118.03 360.107,114.743 362.529,111.794 364.95,109.189 367.371,106.934 369.792,105.035 372.213,103.494 374.635,102.313 377.056,101.493 379.477,101.031 381.898,100.926 384.319,101.173 386.741,101.767 389.162,102.701 391.583,103.968 394.004,105.557 396.425,107.459 398.846,109.662 401.268,112.153 403.689,114.919 406.11,117.945 408.531,121.216 410.952,124.716 413.374,128.428 415.795,132.334 418.216,136.416 420.637,140.657 423.058,145.036 425.48,149.534 427.901,154.133 430.322,158.812 432.743,163.552 435.164,168.332 437.586,173.134 440.007,177.938 442.428,182.724 444.849,187.474 447.27,192.17 449.692,196.792 452.113,201.323 454.534,205.747 456.955,210.048 459.376,214.208 461.798,218.214 464.219,222.052 466.64,225.708 469.061,229.169 471.482,232.425 473.904,235.465 476.325,238.28 478.746,240.861 481.167,243.201 483.588,245.293 486.01,247.132 488.431,248.714 490.852,250.036 493.273,251.095 495.694,251.892 498.116,252.426 500.537,252.698 502.958,252.71 505.379,252.466 507.8,251.969 510.222,251.225 512.643,250.241 515.064,249.022 517.485,247.577 519.906,245.915 522.328,244.044 524.749,241.976 527.17,239.719 529.591,237.287 532.012,234.691 534.434,231.943 536.855,229.057 539.276,226.045 541.697,222.921 544.118,219.699 546.54,216.394 548.961,213.019 551.382,209.589 553.803,206.118 556.224,202.621 558.646,199.112 561.067,195.605 563.488,192.115 565.909,188.654" stroke="rgba(0,140,200,1)" fill="none" stroke-width="2"/>
</g>
<line x1="84.0909" y1="323" x2="84.0909" y2="328" stroke="rgba(90,90,105,1)" stroke-width="1"/>
<text x="69.0909" y="330" font-family="monospace" font-size="11" fill="rgba(180,180,190,1)" dominant-baseline="hanging">-0</text>
<line x1="160.775" y1="323" x2="160.775" y2="328" stroke="rgba(90,90,105,1)" stroke-width="1"/>
<text x="145.775" y="330" font-family="monospace" font-size="11" fill="rgba(180,180,190,1)" dominant-baseline="hanging">2</text>
<line x1="237.458" y1="323" x2="237.458" y2="328" stroke="rgba(90,90,105,1)" stroke-width="1"/>
<text x="222.458" y="330" font-family="monospace" font-size="11" fill="rgba(180,180,190,1)" dominant-baseline="hanging">4</text>
<line x1="314.142" y1="323" x2="314.142" y2="328" stroke="rgba(90,90,105,1)" stroke-width="1"/>
<text x="299.142" y="330" font-family="monospace" font-size="11" fill="rgba(180,180,190,1)" dominant-baseline="hanging">6</text>
<line x1="390.826" y1="323" x2="390.826" y2="328" stroke="rgba(90,90,105,1)" stroke-width="1"/>
<text x="375.826" y="330" font-family="monospace" font-size="11" fill="rgba(180,180,190,1)" dominant-baseline="hanging">8</text>
<line x1="467.51" y1="323" x2="467.51" y2="328" stroke="rgba(90,90,105,1)" stroke-width="1"/>
<text x="452.51" y="330" font-family="monospace" font-size="11" fill="rgba(180,180,190,1)" dominant-baseline="hanging">10</text>
<line x1="544.193" y1="323" x2="544.193" y2="328" stroke="rgba(90,90,105,1)" stroke-width="1"/>
<text x="529.193" y="330" font-family="monospace" font-size="11" fill="rgba(180,180,190,1)" dominant-baseline="hanging">12</text>
<line x1="55" y1="303.536" x2="60" y2="303.536" stroke="rgba(90,90,105,1)" stroke-width="1"/>
<text x="26.6" y="297.536" font-family="monospace" font-size="11" fill="rgba(180,180,190,1)" dominant-baseline="hanging">-0.6</text>
<line x1="55" y1="265.242" x2="60" y2="265.242" stroke="rgba(90,90,105,1)" stroke-width="1"/>
<text x="26.6" y="259.242" font-family="monospace" font-size="11" fill="rgba(180,180,190,1)" dominant-baseline="hanging">-0.4</text>
<line x1="55" y1="226.948" x2="60" y2="226.948" stroke="rgba(90,90,105,1)" stroke-width="1"/>
<text x="26.6" y="220.948" font-family="monospace" font-size="11" fill="rgba(180,180,190,1)" dominant-baseline="hanging">-0.2</text>
<line x1="55" y1="188.654" x2="60" y2="188.654" stroke="rgba(90,90,105,1)" stroke-width="1"/>
<text x="-26.2" y="182.654" font-family="monospace" font-size="11" fill="rgba(180,180,190,1)" dominant-baseline="hanging">-5.55112e-17</text>
<line x1="55" y1="150.36" x2="60" y2="150.36" stroke="rgba(90,90,105,1)" stroke-width="1"/>
<text x="33.2" y="144.36" font-family="monospace" font-size="11" fill="rgba(180,180,190,1)" dominant-baseline="hanging">0.2</text>
<line x1="55" y1="112.066" x2="60" y2="112.066" stroke="rgba(90,90,105,1)" stroke-width="1"/>
<text x="33.2" y="106.066" font-family="monospace" font-size="11" fill="rgba(180,180,190,1)" dominant-baseline="hanging">0.4</text>
<line x1="55" y1="73.7721" x2="60" y2="73.7721" stroke="rgba(90,90,105,1)" stroke-width="1"/>
<text x="33.2" y="67.7721" font-family="monospace" font-size="11" fill="rgba(180,180,190,1)" dominant-baseline="hanging">0.6</text>
<line x1="55" y1="35.4781" x2="60" y2="35.4781" stroke="rgba(90,90,105,1)" stroke-width="1"/>
<text x="33.2" y="29.4781" font-family="monospace" font-size="11" fill="rgba(180,180,190,1)" dominant-baseline="hanging">0.8</text>
<text x="295" y="341" font-family="monospace" font-size="12" fill="rgba(220,220,220,1)" dominant-baseline="hanging">Time (s)</text>
<text x="10" y="166.5" font-family="monospace" font-size="12" fill="rgba(220,220,220,1)" text-anchor="middle" dominant-baseline="central" transform="rotate(-90 10 166.5)">Amplitude</text>
</g>
</svg>
