<svg xmlns="http://www.w3.org/2000/svg" viewBox="0 0 600 400">
<rect width="600" height="400" fill="rgba(30,30,30,1)"/>
<clipPath id="clip-0"><rect x="0" y="0" width="600" height="400"/></clipPath>
<g clip-path="url(#clip-0)">
<rect x="60" y="10" width="530" height="345" fill="rgba(30,30,30,1)"/>
<rect x="60" y="10" width="530" height="345" stroke="rgba(90,90,105,1)" fill="none" stroke-width="1"/>
<clipPath id="clip-1"><rect x="60" y="10" width="530" height="345"/></clipPath>
<g clip-path="url(#clip-1)">
<line x1="84.0909" y1="10" x2="84.0909" y2="355" stroke="rgba(60,60,70,1)" stroke-width="1"/>
<line x1="160.775" y1="10" x2="160.775" y2="355" stroke="rgba(60,60,70,1)" stroke-width="1"/>
<line x1="237.458" y1="10" x2="237.458" y2="355" stroke="rgba(60,60,70,1)" stroke-width="1"/>
<line x1="314.142" y1="10" x2="314.142" y2="355" stroke="rgba(60,60,70,1)" stroke-width="1"/>
<line x1="390.826" y1="10" x2="390.826" y2="355" stroke="rgba(60,60,70,1)" stroke-width="1"/>
<line x1="467.51" y1="10" x2="467.51" y2="355" stroke="rgba(60,60,70,1)" stroke-width="1"/>
<line x1="544.193" y1="10" x2="544.193" y2="355" stroke="rgba(60,60,70,1)" stroke-width="1"/>
<line x1="60" y1="333.546" x2="590" y2="333.546" stroke="rgba(60,60,70,1)" stroke-width="1"/>
<line x1="60" y1="291.337" x2="590" y2="291.337" stroke="rgba(60,60,70,1)" stroke-width="1"/>
<line x1="60" y1="249.128" x2="590" y2="249.128" stroke="rgba(60,60,70,1)" stroke-width="1"/>
<line x1="60" y1="206.919" x2="590" y2="206.919" stroke="rgba(60,60,70,1)" stroke-width="1"/>
<line x1="60" y1="164.71" x2="590" y2="164.71" stroke="rgba(60,60,70,1)" stroke-width="1"/>
<line x1="60" y1="122.501" x2="590" y2="122.501" stroke="rgba(60,60,70,1)" stroke-width="1"/>
<line x1="60" y1="80.292" x2="590" y2="80.292" stroke="rgba(60,60,70,1)" stroke-width="1"/>
<line x1="60" y1="38.0829" x2="590" y2="38.0829" stroke="rgba(60,60,70,1)" stroke-width="1"/>
<line x1="60" y1="10" x2="60" y2="355" stroke="rgba(90,90,105,1)" stroke-width="1"/>
<line x1="60" y1="355" x2="590" y2="355" stroke="rgba(90,90,105,1)" stroke-width="1"/>
<polyline points="84.0909,206.919 86.5121,193.685 88.9333,180.67 91.3545,167.923 93.7757,155.492 96.1969,143.423 98.6181,131.759 101.039,120.542 103.46,109.812 105.882,99.6051 108.303,89.9555 110.724,80.895 113.145,72.4523 115.566,64.6536 117.988,57.522 120.409,51.0776 122.83,45.3375 125.251,40.316 127.672,36.024 130.094,32.4696 132.515,29.6577 134.936,27.5904 137.357,26.2664 139.778,25.6818 142.2,25.8297 144.621,26.7002 147.042,28.2808 149.463,30.5562 151.884,33.5087 154.306,37.118 156.727,41.3613 159.148,46.2137 161.569,51.6481 163.99,57.6356 166.412,64.1452 168.833,71.1443 171.254,78.5987 173.675,86.473 176.096,94.7304 178.518,103.333 180.939,112.242 183.36,121.418 185.781,130.821 188.202,140.41 190.624,150.145 193.045,159.986 195.466,169.89 197.887,179.818 200.308,189.73 202.73,199.587 205.151,209.349 207.572,218.978 209.993,228.439 212.414,237.695 214.836,246.712 217.257,255.456 219.678,263.896 222.099,272.003 224.52,279.747 226.942,287.103 229.363,294.045 231.784,300.552 234.205,306.603 236.626,312.179 239.048,317.263 241.469,321.843 243.89,325.905 246.311,329.44 248.732,332.441 251.153,334.902 253.575,336.82 255.996,338.194 258.417,339.025 260.838,339.318 263.259,339.077 265.681,338.311 268.102,337.029 270.523,335.242 272.944,332.964 275.365,330.21 277.787,326.998 280.208,323.345 282.629,319.273 285.05,314.802 287.471,309.956 289.893,304.758 292.314,299.234 294.735,293.411 297.156,287.314 299.577,280.972 301.999,274.413 304.42,267.667 306.841,260.762 309.262,253.728 311.683,246.596 314.105,239.394 316.526,232.153 318.947,224.901 321.368,217.669 323.789,210.485 326.211,203.376 328.632,196.371 331.053,189.496 333.474,182.776 335.895,176.238 338.317,169.905 340.738,163.799 343.159,157.942 345.58,152.355 348.001,147.056 350.423,142.063 352.844,137.393 355.265,133.059 357.686,129.075 360.107,125.452 362.529,122.201 364.95,119.329 367.371,116.844 369.792,114.751 372.213,113.053 374.635,111.751 377.056,110.847 379.477,110.338 381.898,110.222 384.319,110.494 386.741,111.149 389.162,112.179 391.583,113.575 394.004,115.326 396.425,117.423 398.846,119.851 401.268,122.596 403.689,125.645 406.11,128.981 408.531,132.586 410.952,136.444 413.374,140.535 415.795,144.841 418.216,149.341 420.637,154.014 423.058,158.841 425.48,163.8 427.901,168.868 430.322,174.026 432.743,179.25 435.164,184.52 437.586,189.813 440.007,195.107 442.428,200.383 444.849,205.619 447.27,210.794 449.692,215.889 452.113,220.884 454.534,225.76 456.955,230.5 459.376,235.086 461.798,239.501 464.219,243.731 466.64,247.761 469.061,251.576 471.482,255.165 473.904,258.516 476.325,261.619 478.746,264.463 481.167,267.042 483.588,269.348 486.01,271.375 488.431,273.119 490.852,274.576 493.273,275.744 495.694,276.622 498.116,277.211 500.537,277.51 502.958,277.524 505.379,277.254 507.8,276.707 510.222,275.888 512.643,274.802 515.064,273.459 517.485,271.867 519.906,270.034 522.328,267.972 524.749,265.692 527.17,263.205 529.591,260.524 532.012,257.663 534.434,254.634 536.855,251.452 539.276,248.132 541.697,244.689 544.118,241.138 546.54,237.495 548.961,233.775 551.382,229.994 553.803,226.169 556.224,222.314 558.646,218.446 561.067,214.581 563.488,210.734 565.909,206.919" stroke="rgba(0,140,200,1)" fill="none" stroke-width="2"/>
</g>
<line x1="84.0909" y1="355" x2="84.0909" y2="360" stroke="rgba(90,90,105,1)" stroke-width="1"/>
<text x="69.0909" y="362" font-family="monospace" font-size="11" fill="rgba(180,180,190,1)" dominant-baseline="hanging">-0</text>
<line x1="160.775" y1="355" x2="160.775" y2="360" stroke="rgba(90,90,105,1)" stroke-width="1"/>
<text x="145.775" y="362" font-family="monospace" font-size="11" fill="rgba(180,180,190,1)" dominant-baseline="hanging">2</text>
<line x1="237.458" y1="355" x2="237.458" y2="360" stroke="rgba(90,90,105,1)" stroke-width="1"/>
<text x="222.458" y="362" font-family="monospace" font-size="11" fill="rgba(180,180,190,1)" dominant-baseline="hanging">4</text>
<line x1="314.142" y1="355" x2="314.142" y2="360" stroke="rgba(90,90,105,1)" stroke-width="1"/>
<text x="299.142" y="362" font-family="monospace" font-size="11" fill="rgba(180,180,190,1)" dominant-baseline="hanging">6</text>
<line x1="390.826" y1="355" x2="390.826" y2="360" stroke="rgba(90,90,105,1)" stroke-width="1"/>
<text x="375.826" y="362" font-family="monospace" font-size="11" fill="rgba(180,180,190,1)" dominant-baseline="hanging">8</text>
<line x1="467.51" y1="355" x2="467.51" y2="360" stroke="rgba(90,90,105,1)" stroke-width="1"/>
<text x="452.51" y="362" font-family="monospace" font-size="11" fill="rgba(180,180,190,1)" dominant-baseline="hanging">10</text>
<line x1="544.193" y1="355" x2="544.193" y2="360" stroke="rgba(90,90,105,1)" stroke-width="1"/>
<text x="529.193" y="362" font-family="monospace" font-size="11" fill="rgba(180,180,190,1)" dominant-baseline="hanging">12</text>
<line x1="55" y1="333.546" x2="60" y2="333.546" stroke="rgba(90,90,105,1)" stroke-width="1"/>
<text x="26.6" y="327.546" font-family="monospace" font-size="11" fill="rgba(180,180,190,1)" dominant-baseline="hanging">-0.6</text>
<line x1="55" y1="291.337" x2="60" y2="291.337" stroke="rgba(90,90,105,1)" stroke-width="1"/>
<text x="26.6" y="285.337" font-family="monospace" font-size="11" fill="rgba(180,180,190,1)" dominant-baseline="hanging">-0.4</text>
<line x1="55" y1="249.128" x2="60" y2="249.128" stroke="rgba(90,90,105,1)" stroke-width="1"/>
<text x="26.6" y="243.128" font-family="monospace" font-size="11" fill="rgba(180,180,190,1)" dominant-baseline="hanging">-0.2</text>
<line x1="55" y1="206.919" x2="60" y2="206.919" stroke="rgba(90,90,105,1)" stroke-width="1"/>
<text x="-26.2" y="200.919" font-family="monospace" font-size="11" fill="rgba(180,180,190,1)" dominant-baseline="hanging">-5.55112e-17</text>
<line x1="55" y1="164.71" x2="60" y2="164.71" stroke="rgba(90,90,105,1)" stroke-width="1"/>
<text x="33.2" y="158.71" font-family="monospace" font-size="11" fill="rgba(180,180,190,1)" dominant-baseline="hanging">0.2</text>
<line x1="55" y1="122.501" x2="60" y2="122.501" stroke="rgba(90,90,105,1)" stroke-width="1"/>
<text x="33.2" y="116.501" font-family="monospace" font-size="11" fill="rgba(180,180,190,1)" dominant-baseline="hanging">0.4</text>
<line x1="55" y1="80.292" x2="60" y2="80.292" stroke="rgba(90,90,105,1)" stroke-width="1"/>
<text x="33.2" y="74.292" font-family="monospace" font-size="11" fill="rgba(180,180,190,1)" dominant-baseline="hanging">0.6</text>
<line x1="55" y1="38.0829" x2="60" y2="38.0829" stroke="rgba(90,90,105,1)" stroke-width="1"/>
<text x="33.2" y="32.0829" font-family="monospace" font-size="11" fill="rgba(180,180,190,1)" dominant-baseline="hanging">0.8</text>
<text x="295" y="373" font-family="monospace" font-size="12" fill="rgba(220,220,220,1)" dominant-baseline="hanging">Time (s)</text>
<text x="10" y="182.5" font-family="monospace" font-size="12" fill="rgba(220,220,220,1)" text-anchor="middle" dominant-baseline="central" transform="rotate(-90 10 182.5)">Amplitude</text>
</g>
</svg>
