<svg xmlns="http://www.w3.org/2000/svg" viewBox="0 0 320 160">
<rect width="320" height="160" fill="rgba(30,30,30,1)"/>
<clipPath id="clip-0"><rect x="0" y="0" width="320" height="24"/></clipPath>
<g clip-path="url(#clip-0)">
<rect x="0" y="0" width="320" height="24" fill="rgba(42,42,74,1)"/>
<rect x="0" y="22" width="320" height="2" fill="rgba(74,74,106,1)"/>
<text x="4" y="4" font-family="monospace" font-size="14" fill="rgba(136,136,204,1)" dominant-baseline="hanging">Sensor</text>
<text x="164" y="4" font-family="monospace" font-size="14" fill="rgba(136,136,204,1)" dominant-baseline="hanging">Value</text>
</g>
<clipPath id="clip-1"><rect x="0" y="24" width="320" height="104"/></clipPath>
<g clip-path="url(#clip-1)">
<clipPath id="clip-2"><rect x="0" y="24" width="320" height="24"/></clipPath>
<g clip-path="url(#clip-2)">
<rect x="0" y="24" width="320" height="24" fill="rgba(30,30,50,1)"/>
<clipPath id="clip-3"><rect x="0" y="24" width="160" height="24"/></clipPath>
<g clip-path="url(#clip-3)">
<text x="4" y="28" font-family="monospace" font-size="14" fill="rgba(220,220,220,1)" dominant-baseline="hanging">battery</text>
</g>
<clipPath id="clip-4"><rect x="160" y="24" width="160" height="24"/></clipPath>
<g clip-path="url(#clip-4)">
<text x="164" y="28" font-family="monospace" font-size="14" fill="rgba(220,220,220,1)" dominant-baseline="hanging">3.7</text>
</g>
<rect x="160" y="24" width="1" height="24" fill="rgba(50,50,70,1)"/>
</g>
<clipPath id="clip-5"><rect x="0" y="48" width="320" height="24"/></clipPath>
<g clip-path="url(#clip-5)">
<rect x="0" y="48" width="320" height="24" fill="rgba(26,26,46,1)"/>
<clipPath id="clip-6"><rect x="0" y="48" width="160" height="24"/></clipPath>
<g clip-path="url(#clip-6)">
<text x="4" y="52" font-family="monospace" font-size="14" fill="rgba(220,220,220,1)" dominant-baseline="hanging">bus</text>
</g>
<clipPath id="clip-7"><rect x="160" y="48" width="160" height="24"/></clipPath>
<g clip-path="url(#clip-7)">
<text x="164" y="52" font-family="monospace" font-size="14" fill="rgba(220,220,220,1)" dominant-baseline="hanging">12.1</text>
</g>
<rect x="160" y="48" width="1" height="24" fill="rgba(50,50,70,1)"/>
</g>
<clipPath id="clip-8"><rect x="0" y="72" width="320" height="24"/></clipPath>
<g clip-path="url(#clip-8)">
<rect x="0" y="72" width="320" height="24" fill="rgba(30,30,50,1)"/>
<clipPath id="clip-9"><rect x="0" y="72" width="160" height="24"/></clipPath>
<g clip-path="url(#clip-9)">
<text x="4" y="76" font-family="monospace" font-size="14" fill="rgba(220,220,220,1)" dominant-baseline="hanging">temp</text>
</g>
<clipPath id="clip-10"><rect x="160" y="72" width="160" height="24"/></clipPath>
<g clip-path="url(#clip-10)">
<text x="164" y="76" font-family="monospace" font-size="14" fill="rgba(220,220,220,1)" dominant-baseline="hanging">41.2</text>
</g>
<rect x="160" y="72" width="1" height="24" fill="rgba(50,50,70,1)"/>
</g>
</g>
</svg>
